<svg width="20" height="20" viewBox="0 0 20 20" fill="none" xmlns="http://www.w3.org/2000/svg">
<path d="M9.06477 3.6707C6.60435 5.24612 5.37414 7.14341 5.37414 9.36258C5.37414 10.053 5.49435 10.3982 5.73477 10.3982L5.98227 10.3313C6.17685 10.2563 6.33435 10.2188 6.45477 10.2188C7.15977 10.2188 7.74831 10.4751 8.22039 10.9876C8.69247 11.5001 8.92872 12.1326 8.92914 12.8851C8.92872 13.6084 8.67352 14.2224 8.16352 14.727C7.65352 15.2311 7.03852 15.4832 6.31852 15.4832C5.31352 15.4832 4.48435 15.0701 3.83102 14.2438C3.17935 13.4188 2.85352 12.382 2.85352 11.1332C2.8531 9.7207 3.13018 8.42841 3.68477 7.25633C4.2406 6.08466 5.0881 5.02529 6.22727 4.0782C7.36727 3.13195 8.09477 2.65862 8.40977 2.6582C8.61977 2.6582 8.79227 2.75945 8.92727 2.96195C9.06227 3.16404 9.12977 3.34008 9.12977 3.49008L9.06289 3.67008L9.06477 3.6707ZM17.1648 3.6707C14.7043 5.2457 13.4743 7.1432 13.4748 9.3632C13.4748 10.0536 13.595 10.3988 13.8354 10.3988L14.0829 10.332C14.2775 10.257 14.435 10.2195 14.5554 10.2195C15.2454 10.2195 15.8302 10.4757 16.3098 10.9882C16.7902 11.4999 17.0302 12.1324 17.0298 12.8857C17.0293 13.609 16.7741 14.223 16.2641 14.7276C15.7541 15.2317 15.1391 15.4838 14.4191 15.4838C13.4141 15.4838 12.585 15.0707 11.9316 14.2445C11.28 13.4195 10.9541 12.3826 10.9541 11.1338C10.9533 9.70633 11.2346 8.40299 11.7979 7.22383C12.3604 6.04424 13.2077 4.98862 14.3398 4.05695C15.4739 3.12487 16.1979 2.65883 16.5116 2.65883C16.7221 2.65883 16.895 2.76008 17.0304 2.96258C17.165 3.16508 17.2323 3.34133 17.2323 3.49133L17.1648 3.6707Z" fill="black"/>
</svg>
